<svg width="64" height="64" class="current" viewBox="0 0 64 64" fill="none" xmlns="http://www.w3.org/2000/svg">
<g clip-path="url(#clip0_117_203)">
<path d="M32 -4.57764e-05C32.351 -0.0020752 32.6988 0.0651894 33.0238 0.197895C33.3486 0.330601 33.6442 0.526138 33.8933 0.773289L55.68 22.56C56.9217 23.7985 57.9068 25.2699 58.579 26.8897C59.2512 28.5096 59.5972 30.2462 59.5972 32C59.5972 33.7537 59.2512 35.4903 58.579 37.1102C57.9068 38.7301 56.9217 40.2014 55.68 41.44L33.8933 63.2266C33.3912 63.7288 32.7101 64.0109 32 64.0109C31.2899 64.0109 30.6088 63.7288 30.1067 63.2266C29.6045 62.7245 29.3224 62.0434 29.3224 61.3333C29.3224 60.6231 29.6045 59.9421 30.1067 59.44L51.8933 37.6533C53.3915 36.1533 54.233 34.12 54.233 32C54.233 29.8799 53.3915 27.8466 51.8933 26.3466L30.1067 4.55995C29.8567 4.31205 29.6583 4.01712 29.523 3.69216C29.3876 3.3672 29.3179 3.01865 29.3179 2.66662C29.3179 2.31459 29.3876 1.96604 29.523 1.64108C29.6583 1.31612 29.8567 1.02119 30.1067 0.773289C30.3558 0.526138 30.6513 0.330601 30.9762 0.197895C31.3011 0.0651894 31.649 -0.0020752 32 -4.57764e-05Z" fill="url(#paint0_linear_117_203)"/>
<path d="M5.33341 -4.57764e-05C5.68436 -0.0020752 6.03226 0.0651894 6.35716 0.197895C6.68206 0.330601 6.97757 0.526138 7.22674 0.773289L32.7734 26.3466C34.2715 27.8466 35.113 29.8799 35.113 32C35.113 34.12 34.2715 36.1533 32.7734 37.6533L7.22674 63.2266C6.7246 63.7288 6.04355 64.0109 5.33341 64.0109C4.62327 64.0109 3.94222 63.7288 3.44008 63.2266C2.93793 62.7245 2.65583 62.0434 2.65583 61.3333C2.65583 60.6231 2.93793 59.9421 3.44008 59.44L29.0134 33.8933C29.2634 33.6454 29.4617 33.3504 29.5971 33.0255C29.7325 32.7005 29.8022 32.352 29.8022 32C29.8022 31.6479 29.7325 31.2994 29.5971 30.9744C29.4617 30.6495 29.2634 30.3545 29.0134 30.1066L3.44008 4.55995C3.19014 4.31205 2.99174 4.01712 2.85636 3.69216C2.72098 3.3672 2.65128 3.01865 2.65128 2.66662C2.65128 2.31459 2.72098 1.96604 2.85636 1.64108C2.99174 1.31612 3.19014 1.02119 3.44008 0.773289C3.68925 0.526138 3.98476 0.330601 4.30966 0.197895C4.63456 0.0651894 4.98246 -0.0020752 5.33341 -4.57764e-05Z" fill="url(#paint1_linear_117_203)"/>
</g>
<defs>
<linearGradient id="paint0_linear_117_203" x1="44.4575" y1="64.0109" x2="44.4575" y2="-9.15527e-05" gradientUnits="userSpaceOnUse">
<stop stop-color="#DDBECF"/>
<stop offset="1" stop-color="#B495DE"/>
</linearGradient>
<linearGradient id="paint1_linear_117_203" x1="18.8822" y1="64.0109" x2="18.8822" y2="-9.15527e-05" gradientUnits="userSpaceOnUse">
<stop stop-color="#DDBECF"/>
<stop offset="1" stop-color="#B495DE"/>
</linearGradient>
<clipPath id="clip0_117_203">
<rect width="64" height="64" fill="white" transform="translate(64 64) rotate(-180)"/>
</clipPath>
</defs>
</svg>
