<svg width="64" height="64" class="current" viewBox="0 0 64 64" fill="none" xmlns="http://www.w3.org/2000/svg">
<g clip-path="url(#clip0_117_133)">
<path d="M32 64C31.649 64.0021 31.3012 63.9348 30.9762 63.8021C30.6514 63.6694 30.3558 63.4739 30.1067 63.2267L8.32 41.44C7.07831 40.2015 6.09317 38.7301 5.421 37.1103C4.74883 35.4904 4.40283 33.7538 4.40283 32C4.40283 30.2463 4.74883 28.5097 5.421 26.8898C6.09317 25.2699 7.07831 23.7986 8.32 22.56L30.1067 0.77338C30.6088 0.271237 31.2899 -0.0108643 32 -0.0108643C32.7101 -0.0108643 33.3912 0.271237 33.8933 0.77338C34.3955 1.27552 34.6776 1.95658 34.6776 2.66671C34.6776 3.37685 34.3955 4.0579 33.8933 4.56005L12.1067 26.3467C10.6085 27.8467 9.76704 29.88 9.76704 32C9.76704 34.1201 10.6085 36.1534 12.1067 37.6534L33.8933 59.44C34.1433 59.688 34.3417 59.9829 34.477 60.3078C34.6124 60.6328 34.6821 60.9813 34.6821 61.3334C34.6821 61.6854 34.6124 62.034 34.477 62.3589C34.3417 62.6839 34.1433 62.9788 33.8933 63.2267C33.6442 63.4739 33.3487 63.6694 33.0238 63.8021C32.6989 63.9348 32.351 64.0021 32 64Z" fill="url(#paint0_linear_117_133)"/>
<path d="M58.6668 64C58.3159 64.0021 57.968 63.9348 57.6431 63.8021C57.3182 63.6694 57.0227 63.4739 56.7735 63.2267L31.2268 37.6534C29.7287 36.1534 28.8872 34.1201 28.8872 32C28.8872 29.88 29.7287 27.8467 31.2268 26.3467L56.7735 0.77338C57.2756 0.271237 57.9567 -0.0108643 58.6668 -0.0108643C59.377 -0.0108643 60.058 0.271237 60.5602 0.77338C61.0623 1.27552 61.3444 1.95658 61.3444 2.66671C61.3444 3.37685 61.0623 4.0579 60.5602 4.56005L34.9868 30.1067C34.7369 30.3546 34.5385 30.6496 34.4031 30.9745C34.2677 31.2995 34.198 31.648 34.198 32C34.198 32.3521 34.2677 32.7006 34.4031 33.0256C34.5385 33.3505 34.7369 33.6455 34.9868 33.8934L60.5602 59.44C60.8101 59.688 61.0085 59.9829 61.1439 60.3078C61.2793 60.6328 61.349 60.9813 61.349 61.3334C61.349 61.6854 61.2793 62.034 61.1439 62.3589C61.0085 62.6839 60.8101 62.9788 60.5602 63.2267C60.311 63.4739 60.0155 63.6694 59.6906 63.8021C59.3657 63.9348 59.0178 64.0021 58.6668 64Z" fill="url(#paint1_linear_117_133)"/>
</g>
<defs>
<linearGradient id="paint0_linear_117_133" x1="19.5425" y1="-0.0108643" x2="19.5425" y2="64.0001" gradientUnits="userSpaceOnUse">
<stop stop-color="#DCBECE"/>
<stop offset="1" stop-color="#B495DE"/>
</linearGradient>
<linearGradient id="paint1_linear_117_133" x1="45.1181" y1="-0.0108643" x2="45.1181" y2="64.0001" gradientUnits="userSpaceOnUse">
<stop stop-color="#DCBECE"/>
<stop offset="1" stop-color="#B495DE"/>
</linearGradient>
<clipPath id="clip0_117_133">
<rect width="64" height="64" fill="white"/>
</clipPath>
</defs>
</svg>
