<svg width="41" height="41"  class='current' viewBox="0 0 41 41" fill="none" xmlns="http://www.w3.org/2000/svg">
<g clip-path="url(#clip0_146_56)">
<path d="M11.9583 41C13.8453 41 15.375 39.4703 15.375 37.5833C15.375 35.6963 13.8453 34.1666 11.9583 34.1666C10.0713 34.1666 8.54163 35.6963 8.54163 37.5833C8.54163 39.4703 10.0713 41 11.9583 41Z" fill="url(#paint0_linear_146_56)"/>
<path d="M29.0417 41C30.9286 41 32.4583 39.4703 32.4583 37.5833C32.4583 35.6963 30.9286 34.1666 29.0417 34.1666C27.1547 34.1666 25.625 35.6963 25.625 37.5833C25.625 39.4703 27.1547 41 29.0417 41Z" fill="url(#paint1_linear_146_56)"/>
<path  class='plus' d="M39.2917 5.125H35.875V1.70833C35.875 1.25525 35.6951 0.820734 35.3747 0.500359C35.0543 0.179985 34.6198 0 34.1667 0C33.7136 0 33.2791 0.179985 32.9587 0.500359C32.6384 0.820734 32.4584 1.25525 32.4584 1.70833V5.125H29.0417C28.5886 5.125 28.1541 5.30498 27.8337 5.62536C27.5134 5.94573 27.3334 6.38025 27.3334 6.83333C27.3334 7.28641 27.5134 7.72093 27.8337 8.04131C28.1541 8.36168 28.5886 8.54167 29.0417 8.54167H32.4584V11.9583C32.4584 12.4114 32.6384 12.8459 32.9587 13.1663C33.2791 13.4867 33.7136 13.6667 34.1667 13.6667C34.6198 13.6667 35.0543 13.4867 35.3747 13.1663C35.6951 12.8459 35.875 12.4114 35.875 11.9583V8.54167H39.2917C39.7448 8.54167 40.1793 8.36168 40.4997 8.04131C40.8201 7.72093 41 7.28641 41 6.83333C41 6.38025 40.8201 5.94573 40.4997 5.62536C40.1793 5.30498 39.7448 5.125 39.2917 5.125Z" fill="url(#paint2_linear_146_56)"/>
<path d="M37.1921 16.6153C36.9712 16.5739 36.7444 16.5768 36.5246 16.6238C36.3049 16.6708 36.0966 16.761 35.912 16.8891C35.7273 17.0172 35.57 17.1806 35.4489 17.37C35.3279 17.5593 35.2457 17.7708 35.207 17.9922C34.994 19.1746 34.3723 20.2446 33.4505 21.0152C32.5287 21.7859 31.3655 22.2082 30.164 22.2083H9.25575L7.64992 8.54167H22.2083C22.6614 8.54167 23.0959 8.36168 23.4163 8.04131C23.7367 7.72093 23.9167 7.28641 23.9167 6.83333C23.9167 6.38026 23.7367 5.94573 23.4163 5.62536C23.0959 5.30499 22.6614 5.125 22.2083 5.125H7.24675L7.175 4.52367C7.02778 3.27761 6.42856 2.12885 5.4909 1.29509C4.55325 0.461343 3.34231 0.000534429 2.08758 0L1.70833 0C1.25526 0 0.820734 0.179985 0.500359 0.500359C0.179985 0.820734 0 1.25526 0 1.70833C0 2.16141 0.179985 2.59593 0.500359 2.91631C0.820734 3.23668 1.25526 3.41667 1.70833 3.41667H2.08758C2.50601 3.41672 2.90987 3.57034 3.22255 3.84839C3.53524 4.12644 3.735 4.50957 3.78396 4.92513L6.13463 24.9126C6.37866 26.9913 7.3774 28.908 8.94126 30.299C10.5051 31.69 12.5253 32.4584 14.6182 32.4583H32.4583C32.9114 32.4583 33.3459 32.2784 33.6663 31.958C33.9867 31.6376 34.1667 31.2031 34.1667 30.75C34.1667 30.2969 33.9867 29.8624 33.6663 29.542C33.3459 29.2217 32.9114 29.0417 32.4583 29.0417H14.6182C13.5582 29.0419 12.5242 28.7134 11.6587 28.1015C10.7932 27.4896 10.1387 26.6244 9.78533 25.625H30.164C32.1665 25.6252 34.1053 24.9219 35.6419 23.6379C37.1785 22.3539 38.2151 20.5709 38.5708 18.6003C38.6107 18.3795 38.6067 18.1529 38.559 17.9336C38.5113 17.7142 38.4208 17.5065 38.2928 17.3221C38.1647 17.1378 38.0016 16.9805 37.8128 16.8592C37.6239 16.7379 37.413 16.655 37.1921 16.6153Z" fill="url(#paint3_linear_146_56)"/>
</g>
<defs>
<linearGradient id="paint0_linear_146_56" x1="11.9583" y1="34.1666" x2="11.9583" y2="41" gradientUnits="userSpaceOnUse">
<stop stop-color="#7E5AA9"/>
<stop offset="1" stop-color="#A35E75"/>
</linearGradient>
<linearGradient id="paint1_linear_146_56" x1="29.0417" y1="34.1666" x2="29.0417" y2="41" gradientUnits="userSpaceOnUse">
<stop stop-color="#7E5AA9"/>
<stop offset="1" stop-color="#A35E75"/>
</linearGradient>
<linearGradient id="paint2_linear_146_56" x1="34.1667" y1="0" x2="34.1667" y2="13.6667" gradientUnits="userSpaceOnUse">
<stop stop-color="#7E5AA9"/>
<stop offset="1" stop-color="#A35E75"/>
</linearGradient>
<linearGradient id="paint3_linear_146_56" x1="19.299" y1="0" x2="19.299" y2="32.4583" gradientUnits="userSpaceOnUse">
<stop stop-color="#7E5AA9"/>
<stop offset="1" stop-color="#A35E75"/>
</linearGradient>
<clipPath id="clip0_146_56">
<rect width="41" height="41" fill="white"/>
</clipPath>
</defs>
</svg>
