<svg width="64" height="64" viewBox="0 0 64 64" class='current' fill="none" xmlns="http://www.w3.org/2000/svg">
<g clip-path="url(#clip0_122_788)">
<path d="M18.6666 64C21.6121 64 23.9999 61.6122 23.9999 58.6666C23.9999 55.7211 21.6121 53.3333 18.6666 53.3333C15.7211 53.3333 13.3333 55.7211 13.3333 58.6666C13.3333 61.6122 15.7211 64 18.6666 64Z" fill="black"/>
<path d="M45.3333 64C48.2789 64 50.6667 61.6122 50.6667 58.6666C50.6667 55.7211 48.2789 53.3333 45.3333 53.3333C42.3878 53.3333 40 55.7211 40 58.6666C40 61.6122 42.3878 64 45.3333 64Z" fill="black"/>
<path class='plus' d="M61.3334 8H56.0001V2.66667C56.0001 1.95942 55.7191 1.28115 55.219 0.781049C54.7189 0.280952 54.0407 0 53.3334 0C52.6262 0 51.9479 0.280952 51.4478 0.781049C50.9477 1.28115 50.6667 1.95942 50.6667 2.66667V8H45.3334C44.6262 8 43.9479 8.28095 43.4478 8.78105C42.9477 9.28115 42.6667 9.95942 42.6667 10.6667C42.6667 11.3739 42.9477 12.0522 43.4478 12.5523C43.9479 13.0524 44.6262 13.3333 45.3334 13.3333H50.6667V18.6667C50.6667 19.3739 50.9477 20.0522 51.4478 20.5523C51.9479 21.0524 52.6262 21.3333 53.3334 21.3333C54.0407 21.3333 54.7189 21.0524 55.219 20.5523C55.7191 20.0522 56.0001 19.3739 56.0001 18.6667V13.3333H61.3334C62.0407 13.3333 62.7189 13.0524 63.219 12.5523C63.7191 12.0522 64.0001 11.3739 64.0001 10.6667C64.0001 9.95942 63.7191 9.28115 63.219 8.78105C62.7189 8.28095 62.0407 8 61.3334 8Z" fill="black"/>
<path d="M58.056 25.936C57.7112 25.8715 57.357 25.876 57.014 25.9494C56.671 26.0228 56.346 26.1635 56.0577 26.3634C55.7695 26.5634 55.5238 26.8185 55.3349 27.1141C55.146 27.4097 55.0177 27.7398 54.9573 28.0853C54.6247 29.9311 53.6543 31.6013 52.2154 32.8043C50.7766 34.0072 48.9608 34.6664 47.0853 34.6667H14.448L11.9413 13.3333H34.6667C35.3739 13.3333 36.0522 13.0524 36.5523 12.5523C37.0524 12.0522 37.3333 11.3739 37.3333 10.6667C37.3333 9.95942 37.0524 9.28115 36.5523 8.78105C36.0522 8.28095 35.3739 8 34.6667 8H11.312L11.2 7.06133C10.9702 5.11626 10.0348 3.32308 8.57117 2.02161C7.10751 0.720145 5.21727 0.000834231 3.25867 0L2.66667 0C1.95942 0 1.28115 0.280952 0.781049 0.781049C0.280952 1.28115 0 1.95942 0 2.66667C0 3.37391 0.280952 4.05219 0.781049 4.55229C1.28115 5.05238 1.95942 5.33333 2.66667 5.33333H3.25867C3.91182 5.33342 4.54223 5.57322 5.03033 6.00724C5.51842 6.44127 5.83025 7.03933 5.90667 7.688L9.576 38.888C9.95694 42.1328 11.5159 45.1248 13.9571 47.296C16.3982 49.4673 19.5516 50.6667 22.8187 50.6667H50.6667C51.3739 50.6667 52.0522 50.3857 52.5523 49.8856C53.0524 49.3855 53.3333 48.7072 53.3333 48C53.3333 47.2928 53.0524 46.6145 52.5523 46.1144C52.0522 45.6143 51.3739 45.3333 50.6667 45.3333H22.8187C21.1641 45.3337 19.55 44.8209 18.199 43.8657C16.8479 42.9106 15.8262 41.56 15.2747 40H47.0853C50.2111 40.0003 53.2375 38.9024 55.6361 36.8982C58.0347 34.8939 59.6529 32.1107 60.208 29.0347C60.2703 28.6899 60.264 28.3362 60.1896 27.9939C60.1151 27.6515 59.9739 27.3272 59.7741 27.0394C59.5742 26.7516 59.3196 26.5061 59.0248 26.3167C58.73 26.1274 58.4008 25.998 58.056 25.936Z" fill="black"/>
</g>
<defs>
<clipPath id="clip0_122_788">
<rect width="64" height="64" fill="white"/>
</clipPath>
</defs>
</svg>
