<svg width="150" height="20" viewBox="0 0 150 20" fill="none" xmlns="http://www.w3.org/2000/svg">
<g clip-path="url(#clip0_325_1210)">
<path d="M23.0825 0.562866H8.62823C8.62823 0.562866 0 1.71265 0 9.98114C0 18.2496 8.29323 19.7656 8.62338 19.7656H30.2818V0.562866H26.422V16.4888H9.6575C9.6575 16.4888 3.76833 15.2933 3.76833 10.0478C3.76833 4.8023 8.58697 3.82353 9.26263 3.82353H23.0413L23.0825 0.562866Z" fill="#F9F9F9"/>
<path d="M33.3461 8.66755H44.4827V0.564453H48.4971V19.7663H44.5669V11.4569H33.3461V8.66755Z" fill="#F9F9F9"/>
<path d="M56.622 0.564453H52.7024V4.49476H56.622V0.564453Z" fill="#F9F9F9"/>
<path d="M56.622 6.13031H52.7024V19.7655H56.622V6.13031Z" fill="#F9F9F9"/>
<path d="M64.8003 0.564453H61.0813V19.7663H64.8003V0.564453Z" fill="#F9F9F9"/>
<path d="M73.2109 0.564453H69.4919V19.7663H73.2109V0.564453Z" fill="#F9F9F9"/>
<path d="M98.8602 19.5504L110.054 1.02773C110.054 1.02773 111.386 -1.28549 113.069 1.02773C114.752 3.34095 124.522 19.7583 124.522 19.7583H120.306L116.996 14.1965H108.639L110.118 11.4143H115.387L111.428 4.95563L102.637 19.7583H98.7178L98.8602 19.5504Z" fill="#F9F9F9"/>
<path d="M127.319 19.9936V0.562866H142.267C142.267 0.562866 148.272 0.782064 148.272 7.66954C148.272 9.19027 148.465 12.6428 144.345 14.1459L150 19.7575H145.183L140.347 14.4534H133.152V11.7082H142.052C142.052 11.7082 145.054 11.0787 145.054 7.68158C145.067 7.20705 145.458 3.80989 141.743 3.80989H130.487V19.9936H127.319Z" fill="#F9F9F9"/>
<path d="M95.0029 9.7226C95.0029 9.7226 97.678 9.02406 97.678 5.33302C97.678 5.33302 98.0729 0.56366 91.8463 0.56366H77.3208V19.9936H91.86C91.86 19.9936 97.8997 20.3477 97.8997 14.1403C97.8576 13.3438 98.1999 11.037 95.0029 9.7226ZM92.1837 16.5169H80.4345V3.82433H91.1561C91.1561 3.82433 94.2123 3.78177 94.2123 6.38083C94.2123 6.38083 94.4227 8.67479 92.0712 8.67479H83.0109V11.4144H92.1263C92.1263 11.4144 94.7035 11.6665 94.7035 13.9717C94.7059 14.0287 94.6913 16.5169 92.1837 16.5169V16.5169Z" fill="#F9F9F9"/>
</g>
<defs>
<clipPath id="clip0_325_1210">
<rect width="150" height="20" fill="white"/>
</clipPath>
</defs>
</svg>
