<svg width="41" height="41" viewBox="0 0 41 41" fill="none" xmlns="http://www.w3.org/2000/svg">
<g clip-path="url(#clip0_117_242)">
<path d="M29.0417 3.41675H11.9584C7.24098 3.41675 3.41675 7.24098 3.41675 11.9584V29.0417C3.41675 33.7592 7.24098 37.5834 11.9584 37.5834H29.0417C33.7592 37.5834 37.5834 33.7592 37.5834 29.0417V11.9584C37.5834 7.24098 33.7592 3.41675 29.0417 3.41675Z" stroke="black" stroke-width="2" stroke-linecap="round" stroke-linejoin="round"/>
<path d="M27.3337 19.4238C27.5446 20.8455 27.3017 22.2976 26.6397 23.5733C25.9778 24.8491 24.9304 25.8837 23.6465 26.5299C22.3627 27.1761 20.9077 27.401 19.4887 27.1727C18.0697 26.9443 16.7587 26.2743 15.7424 25.258C14.7261 24.2417 14.0561 22.9308 13.8278 21.5117C13.5994 20.0927 13.8243 18.6378 14.4705 17.3539C15.1167 16.0701 16.1513 15.0227 17.4271 14.3607C18.7029 13.6987 20.1549 13.4559 21.5766 13.6667C23.0269 13.8817 24.3695 14.5575 25.4062 15.5942C26.4429 16.6309 27.1187 17.9735 27.3337 19.4238Z" stroke="black" stroke-width="2" stroke-linecap="round" stroke-linejoin="round"/>
</g>
<defs>
<clipPath id="clip0_117_242">
<rect width="41" height="41" fill="white"/>
</clipPath>
</defs>
</svg>
