<svg width="373" height="50" viewBox="0 0 373 50" class='current' fill="none" xmlns="http://www.w3.org/2000/svg">
<g clip-path="url(#clip0_116_6)">
<path d="M57.2604 1.40714H21.4039C21.4039 1.40714 0 4.2816 0 24.9528C0 45.6241 20.5729 49.4139 21.3919 49.4139H75.1194V1.40714H65.5446V41.2221H23.9572C23.9572 41.2221 9.34803 38.2332 9.34803 25.1194C9.34803 12.0057 21.3015 9.55881 22.9776 9.55881H57.1581L57.2604 1.40714Z" fill="#1D1D1B"/>
<path d="M82.7212 21.6689H110.348V1.41113H120.306V49.4159H110.557V28.6423H82.7212V21.6689Z" fill="#1D1D1B"/>
<path d="M140.461 1.41113H130.738V11.2369H140.461V1.41113Z" fill="#1D1D1B"/>
<path d="M140.461 15.3258H130.738V49.4139H140.461V15.3258Z" fill="#1D1D1B"/>
<path d="M160.749 1.41113H151.523V49.4159H160.749V1.41113Z" fill="#1D1D1B"/>
<path d="M181.613 1.41113H172.388V49.4159H181.613V1.41113Z" fill="#1D1D1B"/>
<path d="M245.241 48.8759L273.01 2.56936C273.01 2.56936 276.314 -3.21369 280.489 2.56936C284.664 8.35241 308.898 49.3958 308.898 49.3958H298.44L290.231 35.4912H269.499L273.168 28.5359H286.238L276.418 12.3891L254.611 49.3958H244.887L245.241 48.8759Z" fill="#1D1D1B"/>
<path d="M315.838 49.984V1.40714H352.919C352.919 1.40714 367.815 1.95513 367.815 19.1738C367.815 22.9756 368.295 31.6071 358.073 35.3647L372.102 49.3938H360.153L348.157 36.1335H330.306V29.2706H352.387C352.387 29.2706 359.832 27.6968 359.832 19.2039C359.866 18.0176 360.835 9.52468 351.618 9.52468H323.696V49.984H315.838Z" fill="#1D1D1B"/>
<path d="M235.672 24.3065C235.672 24.3065 242.308 22.5601 242.308 13.3325C242.308 13.3325 243.287 1.40912 227.841 1.40912H191.808V49.9839H227.875C227.875 49.9839 242.858 50.8692 242.858 35.3507C242.753 33.3594 243.603 27.5924 235.672 24.3065ZM228.678 41.2923H199.532V9.56079H226.129C226.129 9.56079 233.711 9.4544 233.711 15.9521C233.711 15.9521 234.232 21.6869 228.399 21.6869H205.923V28.5359H228.536C228.536 28.5359 234.929 29.1662 234.929 34.9291C234.935 35.0717 234.899 41.2923 228.678 41.2923Z" fill="#1D1D1B"/>
</g>
<defs>
<clipPath id="clip0_116_6">
<rect width="372.102" height="50" fill="white"/>
</clipPath>
</defs>
</svg>
