<svg width="461" height="30" viewBox="0 0 461 30" fill="none" xmlns="http://www.w3.org/2000/svg">
<g clip-path="url(#clip0_310_581)">
<path d="M33.3045 0.895691H12.4363C12.4363 0.895691 -0.00634766 2.57364 -0.00634766 14.6955C-0.00634766 26.8173 11.992 29.0267 12.4363 29.0267H43.7386V0.895691H38.1334V24.2377H13.9354C13.9354 24.2377 5.45658 22.4821 5.45658 14.785C5.40343 12.5433 6.19153 10.364 7.66343 8.68244C9.13533 7.0009 11.1826 5.94101 13.3962 5.71456H33.2689L33.3045 0.895691Z" fill="#1D1D1B"/>
<path d="M48.1177 12.7607H64.1984V0.895691H69.9872V29.1043H64.2991V16.8571H48.1177V12.7607Z" fill="#1D1D1B"/>
<path d="M81.7244 0.895691H76.0659V6.65206H81.7244V0.895691Z" fill="#1D1D1B"/>
<path d="M81.7244 9.04059H76.0659V29.1043H81.7244V9.04059Z" fill="#1D1D1B"/>
<path d="M93.5273 0.895691H88.1592V29.1043H93.5273V0.895691Z" fill="#1D1D1B"/>
<path d="M105.662 0.895691H100.294V29.1043H105.662V0.895691Z" fill="#1D1D1B"/>
<path d="M142.747 28.7281L158.917 1.51671C158.917 1.51671 160.836 -1.88696 163.266 1.51671C165.695 4.92037 179.767 28.9849 179.767 28.9849H173.658L168.889 20.822H156.89L159.023 16.7257H166.619L160.908 7.29099L148.133 29.1043H142.475L142.747 28.7281Z" fill="#1D1D1B"/>
<path d="M183.743 29.373V0.895691H205.328C205.328 0.895691 213.984 1.21217 213.984 11.3097C213.984 13.531 214.251 18.5947 208.314 20.8041L216.485 29.1043H209.541L202.567 21.3415H192.245V17.2273H205.132C206.416 16.8982 207.548 16.1315 208.336 15.0572C209.123 13.983 209.517 12.6674 209.452 11.3336C209.452 10.6349 210.044 5.64888 204.682 5.64888H188.329V29.379L183.743 29.373Z" fill="#1D1D1B"/>
<path d="M137.118 14.3193C137.118 14.3193 140.987 13.2922 140.987 7.87619C140.987 7.87619 141.58 0.895691 132.574 0.895691H111.575V29.373H132.574C132.574 29.373 141.29 29.8925 141.29 20.7862C141.451 19.3873 141.122 17.9756 140.361 16.7948C139.599 15.6141 138.452 14.7385 137.118 14.3193ZM133.054 24.2735H116.09V5.67276H131.572C131.572 5.67276 135.981 5.67276 135.981 9.42276C136.024 9.81721 135.99 10.2165 135.881 10.5977C135.771 10.979 135.588 11.3347 135.343 11.6447C135.097 11.9547 134.792 12.2128 134.447 12.4043C134.103 12.5958 133.724 12.7169 133.332 12.7607C133.184 12.7726 133.036 12.7726 132.888 12.7607H119.811V16.7794H132.965C132.965 16.7794 136.686 17.1437 136.686 20.5295C136.713 21.4914 136.36 22.4249 135.704 23.1247C135.049 23.8245 134.144 24.2334 133.19 24.2615H133.054V24.2735Z" fill="#1D1D1B"/>
<path d="M271.085 30L263.974 16.7377V30H255.893V1.42715H263.992L271.102 15.7166L278.212 1.42715H286.312V30H278.171V16.7377L271.085 30Z" fill="#231F20"/>
<path d="M296.154 25.9216L294.714 30H286.614L296.74 1.42715H306.866L316.992 30H308.893L307.453 25.9216H296.154ZM301.806 10.002L299.051 17.7647H304.561L301.806 10.002Z" fill="#231F20"/>
<path d="M324.689 19.795C317.938 19.795 314.563 16.7078 314.563 10.5334C314.563 4.45861 317.938 1.42318 324.689 1.42716H337.855V9.58998H324.689C323.338 9.58998 322.663 9.90646 322.663 10.5334C322.663 11.2679 323.338 11.6322 324.689 11.6322H330.744C337.499 11.6322 340.874 14.6676 340.87 20.7385C340.87 26.9128 337.495 30 330.744 30H317.603V21.8372H330.744C332.095 21.8372 332.771 21.4729 332.771 20.7385C332.771 20.1413 332.095 19.795 330.744 19.795H324.689Z" fill="#231F20"/>
<path d="M350.469 17.7588V30H342.369V1.42715H350.469V13.6744L359.582 1.42715H368.695L358.569 15.7584L368.641 29.9821H359.582L350.469 17.7588Z" fill="#231F20"/>
<path d="M377.203 17.7588V30H369.103V1.42715H377.203V13.6744L386.316 1.42715H395.428L385.302 15.7584L395.411 29.9821H386.316L377.203 17.7588Z" fill="#231F20"/>
<path d="M403.931 1.42715V30H395.832V1.42715H403.931Z" fill="#231F20"/>
<path d="M415.74 15.7166V30H407.64V1.42715H415.74L425.866 15.7166V1.42715H433.965V30H425.866L415.74 15.7166Z" fill="#231F20"/>
<path d="M452.7 21.8372V13.6744H460.8V30H449.661C447.799 30.0016 445.956 29.6332 444.235 28.9159C442.515 28.1987 440.952 27.1466 439.636 25.82C438.319 24.4933 437.275 22.9181 436.564 21.1845C435.852 19.4508 435.486 17.5927 435.488 15.7166C435.487 13.8403 435.853 11.9823 436.565 10.2487C437.277 8.51506 438.321 6.93976 439.637 5.61279C440.953 4.28582 442.516 3.23317 444.236 2.51499C445.956 1.79681 447.799 1.42715 449.661 1.42715H458.774V9.58998H449.661C448.082 9.63966 446.585 10.3066 445.485 11.4496C444.386 12.5926 443.771 14.1218 443.771 15.7136C443.771 17.3053 444.386 18.8346 445.485 19.9776C446.585 21.1206 448.082 21.7875 449.661 21.8372H452.7Z" fill="#231F20"/>
<path d="M245.222 21.664C244.859 23.1842 244.225 24.625 243.349 25.9156L244.961 27.4682L242.591 29.8567L240.979 28.2624C239.579 29.2045 237.923 29.6863 236.239 29.6417C232.518 29.6417 230.125 27.8503 230.125 25.1095C230.125 23.3181 231.31 21.6939 233.206 20.6429L232.969 20.428C232.441 19.9777 232.015 19.4183 231.721 18.7878C231.426 18.1573 231.27 17.4703 231.262 16.7735C231.262 14.0983 233.419 12.3786 236.595 12.3786C239.652 12.3786 241.785 14.0267 241.785 16.4152C241.785 18.2066 240.647 19.9025 238.514 21.2401L240.979 23.6286C241.544 22.7368 241.968 21.7617 242.235 20.7385L245.222 21.664ZM238.657 26.0112L235.267 22.715C234.225 23.2643 233.703 23.9093 233.703 24.6975C233.703 25.8917 234.793 26.5605 236.405 26.5605C237.192 26.595 237.973 26.4046 238.657 26.0112ZM234.793 16.7675C234.793 17.3647 235.102 17.9618 235.931 18.75L236.429 19.2277C237.709 18.3917 238.277 17.6513 238.277 16.8392C238.277 15.9315 237.566 15.3344 236.5 15.3344C235.433 15.3344 234.793 15.9136 234.793 16.7675Z" fill="#231F20"/>
</g>
<defs>
<clipPath id="clip0_310_581">
<rect width="460.8" height="30" fill="white"/>
</clipPath>
</defs>
</svg>
