<svg width="144" height="20" viewBox="0 0 144 20" fill="none" xmlns="http://www.w3.org/2000/svg">
<path d="M10.6577 20L5.66971 10.7168V20H0V0H5.68219L10.6702 10.0021L15.6582 0H21.3404V20H15.6291V10.7168L10.6577 20Z" fill="#F9F9F9"/>
<path d="M28.2444 17.1452L27.2343 20H21.5521L28.6559 0H35.7596L42.8634 20H37.1812L36.1711 17.1452H28.2444ZM32.2098 6.00209L30.277 11.4357H34.1427L32.2098 6.00209Z" fill="#F9F9F9"/>
<path d="M48.2629 12.8568C43.5271 12.8568 41.1592 10.6959 41.1592 6.37409C41.1592 2.12191 43.5271 -0.00278375 48.2629 2.73722e-06H57.4991V5.71369H48.2629C47.3152 5.71369 46.8413 5.93522 46.8413 6.37409C46.8413 6.88819 47.3152 7.14316 48.2629 7.14316H52.5111C57.2497 7.14316 59.6176 9.26785 59.6148 13.5172C59.6148 17.8391 57.2469 20 52.5111 20H43.2916V14.2863H52.5111C53.4588 14.2863 53.9326 14.0314 53.9326 13.5172C53.9326 13.0993 53.4588 12.8568 52.5111 12.8568H48.2629Z" fill="#F9F9F9"/>
<path d="M66.3492 11.4316V20H60.667V0H66.3492V8.57262L72.7421 0H79.1351L72.0314 10.0313L79.0977 19.9875H72.7421L66.3492 11.4316Z" fill="#F9F9F9"/>
<path d="M85.1038 11.4316V20H79.4216V0H85.1038V8.57262L91.4968 0H97.8897L90.786 10.0313L97.8773 19.9875H91.4968L85.1038 11.4316Z" fill="#F9F9F9"/>
<path d="M103.855 0V20H98.1725V0H103.855Z" fill="#F9F9F9"/>
<path d="M112.139 10.0021V20H106.457V0H112.139L119.242 10.0021V0H124.925V20H119.242L112.139 10.0021Z" fill="#F9F9F9"/>
<path d="M138.068 14.2863V8.57262H143.75V20H135.935C134.629 20.0011 133.336 19.7432 132.129 19.2412C130.922 18.7391 129.826 18.0027 128.902 17.0741C127.979 16.1455 127.247 15.0429 126.747 13.8294C126.248 12.6159 125.992 11.3153 125.993 10.0021C125.992 8.68879 126.249 7.38825 126.748 6.17477C127.248 4.96129 127.98 3.85863 128.903 2.9298C129.827 2.00096 130.923 1.26415 132.13 0.761447C133.336 0.258744 134.629 -1.14765e-07 135.935 0H142.328V5.71369H135.935C134.828 5.74847 133.777 6.2153 133.006 7.01535C132.235 7.81539 131.804 8.88582 131.804 10C131.804 11.1142 132.235 12.1846 133.006 12.9847C133.777 13.7847 134.828 14.2515 135.935 14.2863H138.068Z" fill="#F9F9F9"/>
</svg>
