<svg width="50" height="50" viewBox="0 0 50 50" fill="none" xmlns="http://www.w3.org/2000/svg">
<path fill-rule="evenodd" clip-rule="evenodd" d="M44.9925 34.0411L37.9511 33.2359C36.2601 33.0415 34.5968 33.6246 33.4048 34.8185L28.3039 39.9275C20.4587 35.9292 14.0272 29.5152 10.0353 21.6297L15.1638 16.493C16.3559 15.299 16.938 13.6331 16.744 11.9393L15.94 4.94229C15.6074 2.13793 13.251 0.02771 10.4234 0.02771H5.62754C2.49498 0.02771 -0.110871 2.63771 0.0831816 5.77527C1.55244 29.4874 20.4864 48.4239 44.1331 49.8955C47.2656 50.0898 49.8715 47.4798 49.8715 44.3423V39.5387C49.8992 36.7344 47.7924 34.3743 44.9925 34.0411Z" fill="#1D1D1D"/>
</svg>
