<svg width="51" height="51" viewBox="0 0 51 51" fill="none" xmlns="http://www.w3.org/2000/svg">
<g clip-path="url(#clip0_122_775)">
<path fill-rule="evenodd" clip-rule="evenodd" d="M25.9335 0.850952C39.7127 0.850952 50.8831 12.0391 50.8831 25.8404C50.8831 39.6416 39.7127 50.8298 25.9335 50.8298C12.1542 50.8298 0.983887 39.6416 0.983887 25.8404C0.983887 12.0391 12.1542 0.850952 25.9335 0.850952ZM32.5806 22.6734C32.4593 21.686 32.1562 20.9107 31.6181 20.2239C30.9193 19.3396 30.0265 18.8101 28.7044 18.496C27.843 18.2866 27.4948 18.3106 27.1833 18.5957C26.893 18.8628 26.8363 19.3983 27.0581 19.745C27.2141 19.9967 27.3941 20.0869 27.8945 20.1853C28.561 20.308 29.0216 20.4674 29.4406 20.7073C30.3298 21.2217 30.744 22.0265 30.7884 23.3294C30.809 23.9412 30.8619 24.1292 31.0752 24.3462C31.4705 24.7429 32.1742 24.6658 32.4728 24.1911C32.5822 24.0122 32.599 23.9343 32.6105 23.519C32.6182 23.2618 32.6072 22.8789 32.5806 22.6734ZM32.5924 16.6153C34.7067 18.3277 35.8881 20.7616 36.0636 23.7868C36.1376 24.9782 36.0394 25.3663 35.6197 25.5873C35.241 25.7922 34.8119 25.7247 34.5175 25.4164C34.3225 25.2158 34.2476 24.9415 34.2505 24.4558C34.2591 23.1129 33.9502 21.6132 33.4479 20.5725C32.8667 19.3613 31.9681 18.3306 30.8377 17.5771C29.8477 16.9152 28.5373 16.4682 27.2668 16.3569C26.4427 16.2846 26.1485 16.1448 25.9902 15.7491C25.8922 15.5124 25.9181 15.1032 26.0331 14.92C26.1416 14.7509 26.3854 14.5641 26.5577 14.5146C26.7404 14.4613 27.8048 14.5545 28.383 14.6697C29.9613 14.9914 31.4012 15.653 32.5924 16.6153ZM39.9179 35.4366C39.8589 35.2638 39.721 34.997 39.6226 34.8438C39.0021 33.9055 35.6685 31.2924 34.0042 30.4379C33.0538 29.9489 32.3497 29.786 31.8277 29.939C31.2664 30.0972 30.9709 30.3589 30.0304 31.5295C29.6513 31.9988 29.2623 32.4384 29.1588 32.5075C28.9028 32.6854 28.4006 32.8287 28.046 32.8287C27.2237 32.8237 25.7317 32.2902 24.5843 31.5888C23.6931 31.0456 22.5507 30.0724 21.6743 29.1093C20.6401 27.9781 19.936 26.9804 19.3795 25.8542C18.6607 24.4069 18.4785 23.5227 18.7789 22.8757C18.8527 22.7126 18.9512 22.5398 18.9954 22.4854C19.0398 22.4361 19.5027 22.0557 20.0147 21.6408C21.0193 20.8406 21.1818 20.6579 21.3689 20.1096C21.6052 19.4131 21.5413 18.7018 21.1768 17.9857C20.8962 17.4423 20.1625 16.2568 19.6307 15.4912C18.9266 14.4836 17.1736 12.33 16.824 12.0385C16.1937 11.5249 15.3861 11.4359 14.4948 11.7817C13.5544 12.1473 11.7915 13.5698 11.0381 14.5626C10.3586 15.4616 10.0977 16.0988 10.0583 16.9385C10.0238 17.63 10.0829 17.9164 10.4473 18.8006C13.2984 25.7356 17.5527 31.2726 23.3977 35.6688C26.4506 37.9656 29.6168 39.7142 32.9012 40.9096C34.8166 41.606 35.6488 41.6405 36.6286 41.0677C37.0423 40.8206 38.0665 39.7685 38.6377 39.0029C39.5831 37.7286 39.9328 37.1408 40.0312 36.6715C40.1002 36.3505 40.046 35.7923 39.9179 35.4366ZM38.6589 19.8018C39.2588 21.3667 39.5464 22.7703 39.6095 24.4815C39.6195 24.8195 39.6148 25.4389 39.593 25.8585C39.5474 26.6627 39.5039 26.8224 39.2727 27.0353C38.9011 27.3845 38.1769 27.3012 37.9022 26.8804C37.7588 26.6546 37.7387 26.4893 37.7663 25.5497C37.8461 22.7701 37.2848 20.5937 35.9328 18.4176C34.3171 15.8068 31.9004 14.048 28.7578 13.1876C27.9564 12.9685 27.281 12.835 26.2306 12.6934C25.5463 12.6038 25.3965 12.5658 25.2276 12.4617C24.7175 12.1344 24.7107 11.3058 25.2193 10.9735C25.4817 10.7981 25.6753 10.7903 26.5306 10.9C29.0389 11.214 31.2771 11.9605 33.1162 13.0886C34.4343 13.8981 35.2656 14.6255 36.3356 15.8994C37.4675 17.258 38.0668 18.2625 38.6589 19.8018Z" fill="black"/>
</g>
<defs>
<clipPath id="clip0_122_775">
<rect width="49.8992" height="49.9788" fill="white" transform="translate(0.983887 0.850952)"/>
</clipPath>
</defs>
</svg>
